<svg width="86" height="86" viewBox="0 0 86 86" fill="none" xmlns="http://www.w3.org/2000/svg">
<g filter="url(#filter0_d)">
<circle cx="39" cy="39" r="39" fill="#FE8000"/>
<circle cx="39" cy="39" r="37" stroke="#FE8000" stroke-width="4"/>
</g>
<g clip-path="url(#clip0)">
<path d="M4.22471 9.51302L8.95984 17.799C9.11956 18.079 9.3869 18.2816 9.69952 18.36L14.1172 19.4644L29.2687 34.616L30.9429 32.9423L15.5542 17.5541C15.4027 17.4022 15.2128 17.2945 15.0049 17.2424L10.7601 16.1775L6.72862 9.11859L10.185 5.66219L17.2468 9.69758L18.3123 13.9423C18.3639 14.1508 18.472 14.3412 18.6234 14.4926L34.0121 29.8813L35.6858 28.2072L20.5342 13.0556L19.4298 8.6404C19.3514 8.32729 19.1489 8.05946 18.8689 7.89926L10.5824 3.16461C10.1203 2.90165 9.53883 2.97957 9.16193 3.35501L4.42728 8.09014C4.04648 8.46461 3.9637 9.04701 4.22471 9.51302Z" fill="black"/>
<path d="M53.4386 26.3294L27.3968 52.3717L25.7227 50.6975L51.7649 24.6558L53.4386 26.3294Z" fill="black"/>
<path d="M22.8389 53.293C22.6246 52.9365 22.2399 52.7189 21.824 52.7189H14.7218C14.3065 52.7189 13.9213 52.9365 13.7075 53.293L10.1562 59.2114C9.9307 59.5864 9.9307 60.0553 10.1562 60.4308L13.7075 66.3492C13.9213 66.7052 14.3065 66.9233 14.7218 66.9233H21.824C22.2399 66.9233 22.6246 66.7052 22.8389 66.3492L26.3897 60.4308C26.6152 60.0553 26.6152 59.5864 26.3897 59.2114L22.8389 53.293ZM21.1545 64.5557H15.3919L12.551 59.8211L15.3919 55.086H21.1545L23.9954 59.8211L21.1545 64.5557Z" fill="black"/>
<path d="M60.8878 31.4117C68.7058 31.438 75.0654 25.1213 75.0917 17.3032C75.0956 16.1131 74.9495 14.9279 74.6569 13.7743C74.4991 13.1398 73.8568 12.7536 73.2223 12.9114C73.0139 12.9635 72.824 13.0711 72.672 13.2226L65.3035 20.5863L59.4571 18.638L57.5073 12.7931L64.8759 5.42305C65.338 4.96045 65.3375 4.21103 64.8749 3.74891C64.7225 3.59649 64.5307 3.48839 64.3208 3.43677C56.7389 1.51671 49.0368 6.10625 47.1167 13.6876C46.825 14.8378 46.6794 16.0201 46.6833 17.2068C46.6863 18.1389 46.7822 19.068 46.9711 19.9805L21.0472 45.9039C20.1347 45.7155 19.2055 45.6196 18.274 45.6162C10.4287 45.6162 4.06909 51.9758 4.06909 59.8211C4.06909 67.6659 10.4287 74.0255 18.274 74.0255C26.1188 74.0255 32.4784 67.6659 32.4784 59.8211C32.4755 58.889 32.3791 57.9599 32.1906 57.0474L38.3969 50.8412L41.1111 53.5554C41.5737 54.0176 42.3227 54.0176 42.7853 53.5554L43.3769 52.9633C43.896 52.4476 44.735 52.4476 45.2541 52.9633C45.7727 53.4804 45.7737 54.32 45.2566 54.8386C45.2561 54.8391 45.2551 54.84 45.2541 54.841L44.6625 55.4326C44.2004 55.8948 44.2004 56.6442 44.6625 57.1063L58.7831 71.227C62.4971 74.975 68.5461 75.0023 72.2942 71.2883C76.0417 67.5743 76.069 61.5249 72.355 57.7773C72.3351 57.7569 72.3146 57.7364 72.2942 57.716L58.1735 43.5958C57.7114 43.1337 56.9619 43.1337 56.4998 43.5958L55.9082 44.1874C55.3886 44.7036 54.5501 44.7036 54.0305 44.1874C53.5124 43.6703 53.5109 42.8308 54.0281 42.3127C54.029 42.3117 54.03 42.3112 54.0305 42.3102L54.6226 41.7181C55.0847 41.256 55.0847 40.5066 54.6226 40.0444L51.9083 37.3302L58.1146 31.1239C59.0271 31.3124 59.9562 31.4088 60.8878 31.4117ZM65.5387 71.6584C64.6787 71.6569 63.826 71.5016 63.0211 71.1992L72.2659 61.9539C73.661 65.665 71.7838 69.8041 68.0728 71.1992C67.263 71.5036 66.4045 71.6594 65.5387 71.6584ZM52.1284 40.8932C50.8176 42.4568 51.0231 44.7874 52.5867 46.0978C53.9609 47.2494 55.9637 47.2484 57.3364 46.0943L70.6205 59.3901C70.7646 59.5347 70.8995 59.6872 71.03 59.842L60.9092 69.9628C60.7539 69.8328 60.6014 69.6979 60.4568 69.5533L47.1625 56.258C48.4734 54.6944 48.2679 52.3639 46.7043 51.0535C45.3301 49.9013 43.3268 49.9028 41.954 51.0564L40.0603 49.1626L50.2342 39.0038L52.1284 40.8932ZM56.9084 28.9877L30.0553 55.8354C29.7607 56.1295 29.6424 56.5565 29.7427 56.9602C31.3667 63.3378 27.513 69.8245 21.1349 71.448C14.7572 73.072 8.27052 69.2183 6.64653 62.8402C5.02303 56.4626 8.87678 49.9758 15.2549 48.3519C17.1842 47.861 19.2055 47.861 21.1349 48.3519C21.5385 48.4507 21.9646 48.3324 22.2597 48.0397L49.1064 21.1916C49.4005 20.8974 49.5189 20.4704 49.4176 20.0672C47.8048 13.7641 51.6069 7.347 57.91 5.73373C59.1011 5.42938 60.3331 5.31251 61.5602 5.38896L55.316 11.6356C54.999 11.9521 54.888 12.4211 55.0297 12.8462L57.3968 19.9489C57.5151 20.3019 57.7927 20.5795 58.1462 20.6968L65.2489 23.0644C65.6735 23.2061 66.1425 23.0956 66.4595 22.779L72.7037 16.5348C72.7178 16.7608 72.7251 16.9843 72.7251 17.2068C72.7582 23.7111 67.5128 29.0106 61.0085 29.0442C60.003 29.049 59.0008 28.9254 58.0269 28.676C57.6232 28.5752 57.1962 28.6931 56.9021 28.9872H56.9084V28.9877Z" fill="black"/>
<path d="M65.2764 62.5349L63.6022 64.209L51.7654 52.3721L53.439 50.698L65.2764 62.5349Z" fill="black"/>
</g>
<defs>
<filter id="filter0_d" x="0" y="0" width="86" height="86" filterUnits="userSpaceOnUse" color-interpolation-filters="sRGB">
<feFlood flood-opacity="0" result="BackgroundImageFix"/>
<feColorMatrix in="SourceAlpha" type="matrix" values="0 0 0 0 0 0 0 0 0 0 0 0 0 0 0 0 0 0 127 0"/>
<feOffset dx="4" dy="4"/>
<feGaussianBlur stdDeviation="2"/>
<feColorMatrix type="matrix" values="0 0 0 0 0 0 0 0 0 0 0 0 0 0 0 0 0 0 0.1 0"/>
<feBlend mode="normal" in2="BackgroundImageFix" result="effect1_dropShadow"/>
<feBlend mode="normal" in="SourceGraphic" in2="effect1_dropShadow" result="shape"/>
</filter>
<clipPath id="clip0">
<rect x="4" y="3" width="71" height="71" fill="white"/>
</clipPath>
</defs>
</svg>
