<svg width="85" height="85" viewBox="0 0 85 85" fill="none" xmlns="http://www.w3.org/2000/svg">
<path d="M42.5 20.918C41.5837 20.918 40.8398 21.6618 40.8398 22.5781C40.8398 23.4945 41.5837 24.2383 42.5 24.2383C43.4163 24.2383 44.1602 23.4945 44.1602 22.5781C44.1602 21.6618 43.4163 20.918 42.5 20.918Z" fill="black"/>
<path d="M14.9414 50.8008C15.8577 50.8008 16.6016 50.057 16.6016 49.1406C16.6016 48.2243 15.8577 47.4805 14.9414 47.4805C14.0251 47.4805 13.2812 48.2243 13.2812 49.1406C13.2812 50.057 14.0251 50.8008 14.9414 50.8008Z" fill="black"/>
<path d="M55.7812 4.31641C40.8353 4.31641 28.5683 14.621 27.6196 27.6007C13.3857 28.3147 0 38.5785 0 52.4609C0 58.2624 2.29568 63.8836 6.47461 68.3375C7.30145 71.746 6.29757 75.3588 3.80669 77.8497C3.33199 78.3244 3.18996 79.0384 3.44677 79.659C3.70358 80.2789 4.30862 80.6836 4.98047 80.6836C9.71516 80.6836 14.278 78.8269 17.6683 75.5553C20.9711 76.6811 25.2804 77.3633 29.2188 77.3633C44.1628 77.3633 56.4285 67.0612 57.3798 54.0841C60.8558 53.9298 64.4711 53.2878 67.3317 52.3131C70.722 55.5848 75.2848 57.4414 80.0195 57.4414C80.6914 57.4414 81.2964 57.0367 81.5532 56.4168C81.81 55.7962 81.668 55.0822 81.1933 54.6075C78.7024 52.1166 77.6986 48.5038 78.5254 45.0953C82.7043 40.6414 85 35.0202 85 29.2188C85 14.7942 70.5832 4.31641 55.7812 4.31641ZM29.2188 74.043C25.3005 74.043 20.8356 73.2738 17.8447 72.0839C17.204 71.8283 16.4719 71.9963 16.0056 72.5054C14.0011 74.6967 11.3948 76.2245 8.55499 76.9268C10.1198 73.9288 10.5193 70.3945 9.5673 67.0457C9.49207 66.7817 9.35265 66.5405 9.16134 66.344C5.39486 62.4647 3.32031 57.5341 3.32031 52.4609C3.32031 40.762 15.1801 30.8789 29.2188 30.8789C42.4754 30.8789 54.1211 40.0973 54.1211 52.4609C54.1211 64.3615 42.9501 74.043 29.2188 74.043ZM75.8387 43.1018C75.6474 43.299 75.5079 43.5402 75.4327 43.8035C74.4807 47.1523 74.8802 50.6866 76.445 53.6847C73.6052 52.983 70.9989 51.4545 68.9944 49.2632C68.5281 48.7548 67.796 48.5862 67.1553 48.8417C64.5632 49.8728 60.8655 50.5868 57.3746 50.7593C56.8895 44.4812 53.7579 38.5805 48.4039 34.1992H70.0586C70.9756 34.1992 71.7188 33.456 71.7188 32.5391C71.7188 31.6221 70.9756 30.8789 70.0586 30.8789H43.3035C39.5351 28.9606 35.3036 27.842 30.9483 27.6072C31.9022 16.4569 42.6757 7.63672 55.7812 7.63672C69.8199 7.63672 81.6797 17.5198 81.6797 29.2188C81.6797 34.292 79.6051 39.2225 75.8387 43.1018Z" fill="black"/>
<path d="M42.5 47.4805H21.582C20.6651 47.4805 19.9219 48.2236 19.9219 49.1406C19.9219 50.0576 20.6651 50.8008 21.582 50.8008H42.5C43.417 50.8008 44.1602 50.0576 44.1602 49.1406C44.1602 48.2236 43.417 47.4805 42.5 47.4805Z" fill="black"/>
<path d="M42.5 57.4414H14.9414C14.0244 57.4414 13.2812 58.1846 13.2812 59.1016C13.2812 60.0185 14.0244 60.7617 14.9414 60.7617H42.5C43.417 60.7617 44.1602 60.0185 44.1602 59.1016C44.1602 58.1846 43.417 57.4414 42.5 57.4414Z" fill="black"/>
<path d="M70.0586 20.918H49.1406C48.2236 20.918 47.4805 21.6611 47.4805 22.5781C47.4805 23.4951 48.2236 24.2383 49.1406 24.2383H70.0586C70.9756 24.2383 71.7188 23.4951 71.7188 22.5781C71.7188 21.6611 70.9756 20.918 70.0586 20.918Z" fill="black"/>
</svg>
