<svg width="39" height="39" viewBox="0 0 39 39" fill="none" xmlns="http://www.w3.org/2000/svg">
<path d="M31.3395 0.0589155C31.2367 0.0195277 31.13 8.10441e-08 31.0227 8.10441e-08C30.8282 -8.30154e-05 30.6341 0.0637351 30.4757 0.188712C30.4446 0.213807 27.1744 2.75781 24.5516 3.58703C23.9284 3.78355 23.0506 4.02852 22.0431 4.31063C17.2321 5.65579 13.1396 6.87972 11.7824 8.23694C10.2688 9.75054 9.2749 15.7155 8.95472 17.9115C3.88792 18.7216 0 23.072 0 28.3637C0 34.2288 4.77115 39 10.6363 39C16.5015 39 21.2727 34.267 21.2727 28.4017C21.2727 27.1133 21.0263 25.8566 20.5665 24.6498C22.144 23.7645 23.7642 23.15 24.9029 23.0412C25.1505 23.0178 25.386 23.0074 25.6179 22.9961C26.8972 22.9364 28.2216 22.875 30.6574 21.1031C31.9661 20.1518 32.7192 18.9097 33.5173 17.5958C34.6114 15.7884 35.7454 13.9205 38.5585 12.2897C38.8321 12.1313 39 11.8388 39 11.5228C39 3.08845 31.4157 0.0883316 31.3395 0.0589155ZM10.6363 37.2654C5.7492 37.2654 1.7727 33.2889 1.7727 28.4017C1.7727 23.5146 5.74928 19.5381 10.6363 19.5381C11.6027 19.5381 12.5571 19.7121 13.466 20.0181C12.759 20.5712 12.0541 21.232 11.4784 21.9395C11.3788 21.5589 11.0484 21.2727 10.6363 21.2727C10.1464 21.2727 9.74996 21.6691 9.74996 22.1591V23.0903C8.2504 23.3076 7.09087 24.589 7.09087 26.1477C7.09087 27.8581 8.48274 29.25 10.1931 29.25H11.0795C11.8118 29.25 12.409 29.8463 12.409 30.5795C12.409 31.3127 11.8117 31.909 11.0795 31.909H7.97726C7.48732 31.909 7.09087 32.3055 7.09087 32.7954C7.09087 33.2854 7.48732 33.6818 7.97726 33.6818H9.74996V34.5682C9.74996 35.0582 10.1464 35.4546 10.6363 35.4546C11.1263 35.4546 11.5227 35.0582 11.5227 34.5682V33.637C13.0223 33.4197 14.1818 32.1383 14.1818 30.5796C14.1818 28.8692 12.79 27.4773 11.0796 27.4773H10.1932C9.46087 27.4773 8.86365 26.881 8.86365 26.1478C8.86365 25.4146 9.46095 24.8183 10.1932 24.8183H10.2343C10.2568 25.3967 10.4775 25.9127 10.8961 26.3313C11.708 27.1423 12.7346 27.4687 13.8305 27.4687C15.5889 27.4687 17.5237 26.6255 19.0363 25.5975C19.3432 26.5048 19.5001 27.4444 19.5001 28.4018C19.5 33.2889 15.5235 37.2654 10.6363 37.2654ZM32.0008 16.6765C31.2685 17.8839 30.6366 18.927 29.6152 19.6697C27.6088 21.1291 26.693 21.1715 25.5349 21.2252C25.2752 21.2373 25.012 21.2503 24.7333 21.2771C22.9381 21.4476 20.3379 22.5512 18.1099 24.0885C16.1311 25.457 13.4201 26.3486 12.1495 25.0778C12.0456 24.974 11.959 24.8337 12.0231 24.5161C12.3053 23.1277 14.8881 20.8867 16.2869 20.3215C17.9679 19.6428 21.9825 17.8052 22.9779 15.4076C23.0904 15.1349 23.061 14.8224 22.8966 14.5766C22.3062 13.6902 21.3818 13.286 20.7084 12.99C20.5024 12.9 20.2306 12.7952 20.2288 12.7909C19.9778 12.4265 19.4931 12.307 19.1035 12.5026C18.5634 12.7727 17.1214 13.1882 16.6107 13.3258C16.3596 13.3933 16.1501 13.5682 16.0394 13.8036L13.9128 18.3039C12.8995 17.9758 11.8418 17.7874 10.77 17.7738C11.2677 14.5463 12.1965 10.3297 13.0358 9.49036C14.1748 8.35211 19.3995 6.89102 22.5209 6.0176C23.5492 5.72934 24.4477 5.4783 25.0847 5.27663C27.4391 4.53391 30.1086 2.66947 31.1369 1.91039C32.553 2.6089 36.9762 5.24812 37.2168 11.0276C34.3327 12.8307 33.0447 14.954 32.0008 16.6765ZM15.7139 18.6404L17.4693 14.927C17.9471 14.7912 18.7469 14.5531 19.3701 14.3142C19.5588 14.4216 19.7701 14.5141 19.9968 14.6128C20.3621 14.7739 20.7637 14.9496 21.0753 15.1954C20.1509 16.4912 17.7186 17.8216 15.7139 18.6404Z" fill="black"/>
</svg>
