<svg width="39" height="39" viewBox="0 0 39 39" fill="none" xmlns="http://www.w3.org/2000/svg">
<g clip-path="url(#clip0)">
<path d="M37.118 11.5512C37.3287 10.7753 37.4378 9.96639 37.4378 9.14068C37.4378 6.69881 36.4869 4.4032 34.7603 2.67659C31.1959 -0.887526 25.3964 -0.887526 21.832 2.67667L19.5 5.00862L17.168 2.67659C13.6036 -0.887602 7.804 -0.887678 4.23966 2.67659C2.51305 4.4032 1.56211 6.69889 1.56211 9.14068C1.56211 9.96639 1.67127 10.7753 1.88196 11.5512C0.535535 12.3315 -0.233352 13.8998 0.0633409 15.4993L1.80244 24.8763L9.41985 32.301V38.9995H29.5802V32.3009L37.1977 24.8762L38.9367 15.4992C39.2332 13.8997 38.4645 12.3314 37.118 11.5512ZM27.295 36.7143H20.6425V28.6054C20.6425 26.6563 21.385 24.8076 22.7331 23.3999L26.7703 19.3375C27.2629 18.8418 28.0646 18.8406 28.5587 19.3348C29.0524 19.8285 29.0517 20.6293 28.557 21.1221L25.2714 24.3955L26.8872 26.0113L30.1742 22.7243C30.8449 22.0536 31.2143 21.1619 31.2143 20.2134C31.2143 20.0155 31.1973 19.8205 31.1658 19.6291L33.9057 14.1493C34.2189 13.5229 34.912 13.204 35.5915 13.3739C36.3499 13.5635 36.8323 14.314 36.6897 15.0827L35.0829 23.7463L27.2949 31.3372L27.295 36.7143ZM3.91691 23.7462L2.31021 15.0826C2.16761 14.314 2.65001 13.5634 3.40831 13.3738C4.08739 13.204 4.78086 13.5227 5.09409 14.1491L7.83569 19.6322C7.656 20.7239 7.98529 21.884 8.82563 22.7242L12.1126 26.0112L13.7285 24.3954L10.486 21.1602C9.99191 20.6672 9.99145 19.8669 10.485 19.3734C10.9794 18.879 11.7815 18.8805 12.274 19.3768L16.2668 23.3998C17.6148 24.8075 18.3573 26.6562 18.3573 28.6054V36.7142H11.7049V31.3371L3.91691 23.7462ZM10.7038 2.28758C12.4597 2.28758 14.2155 2.95584 15.5522 4.29252L19.5 8.24039L23.4479 4.29252C26.1212 1.61932 30.471 1.61924 33.1444 4.29244C34.4394 5.58745 35.1526 7.30926 35.1526 9.14068C35.1526 9.79873 35.0591 10.4422 34.881 11.0573C33.6116 11.1713 32.4622 11.9268 31.862 13.1272L29.7542 17.3429C29.1507 16.9013 28.4255 16.6624 27.6635 16.6624C26.715 16.6624 25.8233 17.0318 25.1526 17.7025L21.053 21.802L21.0768 21.8258C20.4465 22.4851 19.9185 23.2188 19.5 24.0056C19.0815 23.2188 18.5536 22.4851 17.9232 21.8258L17.947 21.802L13.8475 17.7025C12.5955 16.4506 10.6338 16.331 9.24595 17.343L7.13803 13.1272C6.53794 11.9268 5.38834 11.1714 4.119 11.0573C3.94091 10.4422 3.84737 9.79873 3.84737 9.1406C3.84737 7.30918 4.56057 5.58738 5.85558 4.29237C7.19219 2.95576 8.94796 2.28758 10.7038 2.28758Z" fill="black" stroke="#FECC00" stroke-width="0.5"/>
</g>
<defs>
<clipPath id="clip0">
<rect width="39" height="39" fill="white"/>
</clipPath>
</defs>
</svg>
