<svg width="94" height="87" viewBox="0 0 94 87" fill="none" xmlns="http://www.w3.org/2000/svg">
<g filter="url(#filter0_d)">
<circle cx="46.0667" cy="39.0667" r="39.0667" fill="#FEB300"/>
<circle cx="46.0667" cy="39.0667" r="37.0667" stroke="#FEB300" stroke-width="4"/>
</g>
<path d="M92 24.3321C91.9979 22.9353 91.5871 21.5189 90.6788 20.3513L83.3892 11.024C82.1682 9.4737 80.3104 8.68433 78.4539 8.68127C77.349 8.68127 76.224 8.96446 75.2299 9.58438L68.1222 14.0065C67.3747 14.4832 66.0932 14.8104 64.8553 14.802C63.8936 14.8061 62.9643 14.6137 62.3507 14.3105L55.3903 10.939C54.2676 10.3985 53.0161 10.177 51.7575 10.1748C49.9501 10.1833 48.1196 10.6275 46.6487 11.6468L45.8365 12.2166C45.1873 11.8926 44.1952 11.399 43.0715 10.8399C41.7238 10.1791 40.1391 9.91267 38.5385 9.90746C37.0925 9.9116 35.6469 10.1344 34.3776 10.6706L29.6368 12.6935C28.8652 13.0281 27.6379 13.2466 26.4189 13.2412C25.1999 13.2464 23.9748 13.0279 23.2032 12.6935L18.458 10.6695C17.5925 10.3004 16.6673 10.1427 15.7503 10.1416C14.6945 10.1427 13.6449 10.3508 12.6694 10.7459C11.6951 11.1432 10.7908 11.7297 10.0706 12.5345L1.43122 22.2099C0.473662 23.2793 -0.00197043 24.6258 6.13489e-06 25.9514C-0.00197043 27.5321 0.674373 29.1179 1.9789 30.2292L10.0379 37.1048L6.21486 41.0929C5.16099 42.1928 4.6363 43.6188 4.6363 45.0288C4.63433 46.529 5.23017 48.0438 6.41036 49.1591L7.18589 49.896C7.91668 50.5893 8.79481 51.0302 9.71373 51.2654C9.25283 52.1132 9.00091 53.0427 9.00289 53.974C9.00091 55.4753 9.59676 56.989 10.7748 58.1056L10.7728 58.1045L11.5507 58.8446C12.6579 59.8942 14.0933 60.4169 15.5074 60.416C16.2675 60.4171 17.0285 60.2643 17.7436 59.9653C17.9946 60.9836 18.513 61.9516 19.3285 62.7252L20.1063 63.4653C21.2136 64.5149 22.6466 65.0376 24.063 65.0367C25.1703 65.0377 26.2825 64.7114 27.2401 64.078C27.5202 64.9792 28.0002 65.8332 28.7308 66.5274L29.5086 67.2675C30.6135 68.317 32.0489 68.8397 33.4634 68.8388C34.9697 68.8399 36.4909 68.2482 37.6145 67.0752L40.9934 63.5469L45.5839 67.7954C46.6826 68.8146 48.093 69.3217 49.4852 69.3186C51.0147 69.3218 52.5577 68.7091 53.6836 67.5038L54.4164 66.7187C55.0489 66.0393 55.4618 65.2352 55.7013 64.3959L57.4795 66.0372C58.5803 67.0522 59.9887 67.5571 61.3789 67.5561C62.9104 67.5571 64.4577 66.9444 65.5847 65.7382L66.3133 64.954C67.1548 64.055 67.6284 62.9415 67.7747 61.8043C68.2441 61.9245 68.7197 62.0061 69.1995 62.0061C70.7309 62.0061 72.2739 61.3944 73.402 60.1892L74.1328 59.4051C75.1541 58.3104 75.6623 56.9065 75.6601 55.5224C75.6601 55.0928 75.5985 54.6653 75.5033 54.2428C76.7735 54.0745 78.005 53.5079 78.9416 52.5022L79.6743 51.7171C80.6957 50.6225 81.2017 49.2186 81.2017 47.8334C81.2037 46.3093 80.5891 44.7713 79.3764 43.6508L78.0059 42.3849L90.3753 28.7089C91.4857 27.4777 91.998 25.8928 92 24.3321ZM11.1431 48.3554C10.4878 48.3534 9.84688 48.1191 9.34609 47.6445L8.5693 46.9076C8.03186 46.3995 7.76646 45.7233 7.7643 45.029C7.76646 44.3778 7.99951 43.7421 8.47946 43.2413L16.3095 35.0704C16.8197 34.5381 17.5003 34.2716 18.1986 34.2708C18.8519 34.2718 19.4907 34.507 19.9956 34.9827L20.7692 35.7206C20.7692 35.7206 21.5701 36.905 21.572 37.6002C21.5701 38.1207 21.4132 38.6278 21.109 39.067C21.0829 39.093 12.6579 47.8735 12.6579 47.8735C12.2105 48.1901 11.6815 48.353 11.1431 48.3554ZM17.3966 56.5055C16.8876 57.0355 16.208 57.3009 15.5097 57.3031C14.8544 57.302 14.2154 57.0668 13.7127 56.5922L12.9348 55.853L12.9328 55.8519C12.3997 55.3459 12.132 54.6676 12.132 53.9733C12.132 53.3221 12.3672 52.6864 12.8448 52.1856C12.8448 52.1856 23.2821 41.3208 23.37 41.216C23.8688 40.7363 24.5115 40.4885 25.1753 40.4874C25.8306 40.4885 26.4696 40.7226 26.9724 41.1982L27.7502 41.9384C28.2853 42.4444 28.5511 43.1218 28.5531 43.817C28.5509 44.4682 28.3159 45.1048 27.8379 45.6056L17.3966 56.5055ZM25.951 61.1249C25.443 61.6562 24.7636 61.922 24.0652 61.9239C23.4099 61.9229 22.7709 61.6876 22.2681 61.212L21.4881 60.4728C20.953 59.9657 20.6853 59.2885 20.6853 58.5941C20.6853 58.013 20.8829 57.4494 21.2612 56.98L28.5299 49.3934C29.0203 48.9512 29.6348 48.7182 30.2716 48.7182C30.9269 48.7192 31.5659 48.9534 32.0687 49.429L32.8487 50.1691C33.3818 50.6751 33.6495 51.3526 33.6515 52.0467C33.6494 52.6991 33.4122 53.3358 32.9364 53.8353L25.951 61.1249ZM39.7622 60.3242L35.3515 64.9274C34.8434 65.4584 34.1629 65.7241 33.4646 65.7261C32.8093 65.725 32.1704 65.4898 31.6676 65.0142L30.8897 64.275C30.3566 63.769 30.0889 63.0906 30.0869 62.3963C30.0889 61.7439 30.3241 61.1073 30.802 60.6086L35.2107 56.0056C35.7208 55.4746 36.4015 55.2079 37.0997 55.2069C37.7531 55.2079 38.394 55.4421 38.8968 55.9188L39.6768 56.658C40.2099 57.164 40.4755 57.8414 40.4777 58.5356C40.4752 59.1878 40.2399 59.8245 39.7622 60.3242ZM78.0784 47.8375C78.0775 48.4768 77.8484 49.1031 77.3842 49.6006L76.6534 50.3848C76.1433 50.9305 75.4511 51.2065 74.7425 51.2076C74.0995 51.2065 73.4701 50.9806 72.9706 50.5188L60.6557 39.13L58.5262 41.4101L71.7077 53.6215C72.2567 54.1296 72.5325 54.8196 72.5366 55.5242C72.5325 56.166 72.3055 56.7912 71.8425 57.2889L71.1139 58.0731C70.6037 58.6188 69.9116 58.8937 69.2029 58.8958C68.56 58.8939 67.9285 58.6669 67.433 58.208L55.1148 46.8194L52.9875 49.0995L63.9193 59.2087C64.4462 59.7136 64.7161 60.3858 64.7161 61.0756C64.7161 61.7155 64.4891 62.3415 64.0261 62.8382L63.2953 63.6223C62.7871 64.1681 62.093 64.4441 61.3823 64.446C60.7373 64.4441 60.108 64.2171 59.6104 63.7582L48.7005 53.6856H48.6986L48.6966 53.6836L46.5734 55.9678L46.5755 55.9698L46.6163 56.0084L52.0806 61.0516C52.5647 61.5491 52.8156 62.1868 52.8175 62.8465C52.8156 63.4831 52.5906 64.1061 52.1275 64.6029L51.3967 65.388C50.8866 65.9337 50.1966 66.2075 49.4899 66.2097C48.847 66.2077 48.2175 65.9818 47.72 65.5209L42.9624 61.1155C43.3764 60.3033 43.6075 59.422 43.6075 58.5375C43.6094 57.0373 43.0136 55.5247 41.8356 54.4072L41.0555 53.6671C39.9506 52.6185 38.5173 52.0948 37.103 52.0968C36.9932 52.0968 36.8825 52.122 36.7748 52.1283C36.7748 52.1022 36.781 52.0749 36.781 52.0489C36.7829 50.5486 35.0091 47.9164 35.0091 47.9164L34.2312 47.1784C33.4043 46.3943 32.3953 45.9052 31.346 45.7086C31.5623 45.096 31.6847 44.4583 31.6847 43.8195C31.6847 42.3193 31.0908 40.8054 29.9128 39.6892L29.1349 38.9491C28.0277 37.8995 26.5947 37.3757 25.1802 37.3768C25.015 37.3768 24.852 37.4102 24.6878 37.425C24.6429 35.9844 24.0627 34.545 22.9337 33.4724V33.4713L22.158 32.7344C21.0508 31.6838 19.6177 31.16 18.2032 31.1611C16.6946 31.16 15.1757 31.7517 14.0521 32.9247L12.2038 34.8535L4.0162 27.8701C3.42772 27.3663 3.13394 26.67 3.13178 25.955C3.13376 25.3559 3.3377 24.7694 3.77255 24.2825L12.4117 14.6072C12.7546 14.2225 13.2617 13.8744 13.8555 13.6327C14.4494 13.3912 15.1236 13.2586 15.7539 13.2595C16.3029 13.2595 16.818 13.3589 17.2301 13.5366L21.9731 15.5604C23.3101 16.1239 24.8625 16.355 26.4225 16.36C27.9844 16.3548 29.5347 16.1238 30.8719 15.5604L35.6128 13.5375C36.3436 13.2187 37.4463 13.0211 38.543 13.0252C39.7557 13.0179 40.9704 13.2689 41.6749 13.6284C42.1223 13.8511 42.5468 14.0624 42.9408 14.2599L38.1058 17.6586C36.5522 18.7511 35.7149 20.4885 35.717 22.2418C35.715 23.4022 36.0829 24.5834 36.8315 25.5859L36.8295 25.5838L37.4681 26.4419C38.6808 28.0541 40.5718 28.883 42.462 28.8871C43.5293 28.8871 44.6166 28.6174 45.5856 28.0361L48.4772 26.2996C49.0669 25.939 49.9574 25.7112 50.8783 25.7153C51.9604 25.709 53.0508 26.029 53.7063 26.5108L61.7058 32.2458C63.4861 33.5213 66.3859 35.887 67.9929 37.3757L77.252 45.9366C77.8002 46.4449 78.0762 47.1319 78.0784 47.8375ZM88.0537 26.6277L75.7189 40.2671L70.1186 35.0903C68.3644 33.471 65.4718 31.1095 63.5316 29.7159L55.5342 23.9808C54.1783 23.0202 52.5182 22.6049 50.8769 22.5988C49.4802 22.6029 48.0731 22.9073 46.8584 23.6306L43.969 25.3671C43.5257 25.6335 43.0032 25.7696 42.4603 25.7706C41.49 25.7739 40.519 25.3211 39.9776 24.584L39.341 23.7269L39.3388 23.7247C39.0001 23.2679 38.8423 22.7557 38.84 22.2371C38.8441 21.4529 39.2058 20.6919 39.9064 20.1974L48.4558 14.1905C49.195 13.6554 50.5102 13.28 51.7593 13.2894C52.6271 13.2852 53.456 13.4597 54.0236 13.74L60.9838 17.1115C62.1704 17.6813 63.5097 17.9143 64.8569 17.9176C66.5881 17.9091 68.338 17.5329 69.7798 16.6474L76.8897 12.2244C77.3434 11.9412 77.8881 11.7947 78.4559 11.7947C79.4156 11.7927 80.3773 12.2276 80.9219 12.9374L88.2115 22.2646C88.6318 22.7988 88.8752 23.5524 88.8752 24.3335C88.8765 25.207 88.568 26.0664 88.0537 26.6277Z" fill="black"/>
<defs>
<filter id="filter0_d" x="7" y="0" width="86.1333" height="86.1333" filterUnits="userSpaceOnUse" color-interpolation-filters="sRGB">
<feFlood flood-opacity="0" result="BackgroundImageFix"/>
<feColorMatrix in="SourceAlpha" type="matrix" values="0 0 0 0 0 0 0 0 0 0 0 0 0 0 0 0 0 0 127 0"/>
<feOffset dx="4" dy="4"/>
<feGaussianBlur stdDeviation="2"/>
<feColorMatrix type="matrix" values="0 0 0 0 0 0 0 0 0 0 0 0 0 0 0 0 0 0 0.1 0"/>
<feBlend mode="normal" in2="BackgroundImageFix" result="effect1_dropShadow"/>
<feBlend mode="normal" in="SourceGraphic" in2="effect1_dropShadow" result="shape"/>
</filter>
</defs>
</svg>
