<svg width="42" height="35" viewBox="0 0 42 35" fill="none" xmlns="http://www.w3.org/2000/svg">
<mask id="path-1-inside-1" fill="white">
<path d="M28.0191 30.6257L24.9077 30.6291V28.4375H16.6054V30.6394L13.4934 30.6428C12.9213 30.6435 12.4575 31.1322 12.4569 31.7358L12.4536 33.9049C12.453 34.5099 12.9187 35.0007 13.4927 35L28.0191 34.9822C28.5912 34.9815 29.0549 34.4928 29.0556 33.8898L29.0582 31.7208C29.0588 31.1158 28.5931 30.625 28.0191 30.6257ZM37.9572 1.82793C37.7872 0.773144 36.9058 0 35.8725 0H5.63863C4.60538 0 3.72391 0.773144 3.55398 1.82793C-0.215125 25.2355 0.00280964 23.7945 0.00216102 24.0625C0.000215179 25.2465 0.929032 26.25 2.11665 26.25H39.3951C40.5776 26.25 41.5038 25.2547 41.509 24.0769C41.5103 23.7979 41.7263 25.2355 37.9572 1.82793ZM16.8532 4.375H24.658L25.2917 10.9375H16.2195L16.8532 4.375ZM11.9775 21.875H4.61122L5.84424 14.2187H12.7176L11.9775 21.875ZM13.0341 10.9375H6.37221L7.4288 4.375H13.6678L13.0341 10.9375ZM15.1629 21.875L15.9023 14.2187H25.6088L26.3483 21.875H15.1629ZM27.8433 4.375H34.0823L35.1389 10.9375H28.477L27.8433 4.375ZM29.5336 21.875L28.7942 14.2187H35.6676L36.9006 21.875H29.5336Z"/>
</mask>
<path d="M28.0191 30.6257L24.9077 30.6291V28.4375H16.6054V30.6394L13.4934 30.6428C12.9213 30.6435 12.4575 31.1322 12.4569 31.7358L12.4536 33.9049C12.453 34.5099 12.9187 35.0007 13.4927 35L28.0191 34.9822C28.5912 34.9815 29.0549 34.4928 29.0556 33.8898L29.0582 31.7208C29.0588 31.1158 28.5931 30.625 28.0191 30.6257ZM37.9572 1.82793C37.7872 0.773144 36.9058 0 35.8725 0H5.63863C4.60538 0 3.72391 0.773144 3.55398 1.82793C-0.215125 25.2355 0.00280964 23.7945 0.00216102 24.0625C0.000215179 25.2465 0.929032 26.25 2.11665 26.25H39.3951C40.5776 26.25 41.5038 25.2547 41.509 24.0769C41.5103 23.7979 41.7263 25.2355 37.9572 1.82793ZM16.8532 4.375H24.658L25.2917 10.9375H16.2195L16.8532 4.375ZM11.9775 21.875H4.61122L5.84424 14.2187H12.7176L11.9775 21.875ZM13.0341 10.9375H6.37221L7.4288 4.375H13.6678L13.0341 10.9375ZM15.1629 21.875L15.9023 14.2187H25.6088L26.3483 21.875H15.1629ZM27.8433 4.375H34.0823L35.1389 10.9375H28.477L27.8433 4.375ZM29.5336 21.875L28.7942 14.2187H35.6676L36.9006 21.875H29.5336Z" fill="black" stroke="#FECC00" stroke-width="2.4" mask="url(#path-1-inside-1)"/>
</svg>
