<svg width="56" height="56" viewBox="0 0 56 56" fill="none" xmlns="http://www.w3.org/2000/svg">
<path d="M44.2259 36.0736L49.6589 30.6409L44.2259 25.2078L45.1013 24.3325C46.6158 22.8179 46.6158 20.3537 45.1016 18.8391C44.3678 18.1057 43.3922 17.7016 42.3546 17.7016C41.3173 17.7016 40.3417 18.1057 39.6082 18.8391L38.7329 19.7145L33.2998 14.2814L29.1355 18.4461V13.1223H21.4521V11.8845C21.4521 9.7424 19.7097 8 17.5676 8C15.4258 8 13.6834 9.7424 13.6834 11.8845V13.1223H6V23.3668H9.79891C10.5287 23.3668 11.1223 23.9604 11.1223 24.6899C11.1223 25.4197 10.5287 26.0132 9.79891 26.0132H6V36.2578H16.2446V32.6294C16.2446 31.8996 16.8381 31.3061 17.5676 31.3061C18.2974 31.3061 18.891 31.8996 18.891 32.6294V36.2578H29.0083C29.0076 36.5956 28.8787 36.9333 28.6216 37.1905L26.0558 39.7563L33.2998 47L38.7329 41.5669L39.4873 42.3217C40.2211 43.0552 41.1964 43.4596 42.234 43.4596C43.2716 43.4596 44.2469 43.0555 44.9807 42.3217C46.4952 40.8072 46.4952 38.343 44.9807 36.8284L44.2259 36.0736ZM26.5744 26.0132V33.6967H21.4521V32.6294C21.4521 30.4877 19.7097 28.7449 17.5676 28.7449C15.4258 28.7449 13.6834 30.4877 13.6834 32.6294V33.6967H8.56114V28.5744H9.79891C11.9407 28.5744 13.6834 26.832 13.6834 24.6899C13.6834 22.5481 11.9407 20.8057 9.79891 20.8057H8.56114V15.6834H16.2446V11.8845C16.2446 11.1547 16.8381 10.5611 17.5676 10.5611C18.2974 10.5611 18.891 11.1547 18.891 11.8845V15.6834H26.5744V23.3668H30.2024C30.9322 23.3668 31.5258 23.9604 31.5258 24.6899C31.5258 25.4197 30.9322 26.0132 30.2024 26.0132H26.5744ZM43.1697 40.5107C42.6537 41.0267 41.8143 41.0267 41.2984 40.5107L38.7329 37.9452L33.2998 43.378L29.6778 39.7563L30.4326 39.0015C31.9468 37.4869 31.9468 35.0227 30.4326 33.5081C30.0589 33.1347 29.6168 32.845 29.1355 32.6511V28.5744H30.2024C32.3445 28.5744 34.0869 26.832 34.0869 24.6899C34.0869 22.6121 32.4468 20.91 30.3929 20.8104L33.2998 17.9038L38.7329 23.3365L41.4193 20.6505C41.6691 20.4003 42.0015 20.2628 42.3549 20.2628C42.7083 20.2628 43.0404 20.4003 43.2906 20.6505C43.8065 21.1661 43.8065 22.0058 43.2906 22.5218L40.6042 25.2078L46.0372 30.6409L40.6042 36.0739L43.1697 38.6394C43.6856 39.1554 43.6856 39.9948 43.1697 40.5107Z" fill="black" stroke="#FECC00" stroke-width="0.7"/>
</svg>
