<svg width="86" height="86" viewBox="0 0 86 86" fill="none" xmlns="http://www.w3.org/2000/svg">
<circle cx="43" cy="46" r="37" fill="#DB6E00" stroke="#DB6E00" stroke-width="4"/>
<g clip-path="url(#clip0)">
<path d="M65.0733 9.53166L43.5733 0.120394C43.2077 -0.0391548 42.7922 -0.0391548 42.4267 0.120394L20.9267 9.53166C20.4046 9.75952 20.0669 10.2749 20.0667 10.8446V33.3479C20.0744 38.4052 22.5046 43.1526 26.6026 46.1161L41.462 56.8331C42.3797 57.4973 43.6202 57.4973 44.538 56.8331L59.3973 46.1175C63.4953 43.154 65.9255 38.4066 65.9333 33.3494V10.8446C65.933 10.2749 65.5954 9.75952 65.0733 9.53166ZM63.0667 33.3494C63.0601 37.4858 61.0722 41.3688 57.7203 43.7926L43 54.4093L28.2796 43.7926C24.9277 41.3688 22.9399 37.4858 22.9333 33.3494V11.782L43 2.99853L63.0667 11.782V33.3494Z" fill="black"/>
<path d="M42.4267 6.37833L26.66 13.2813C26.138 13.5091 25.8003 14.0245 25.8 14.5942V33.3494C25.8045 36.5653 27.3502 39.5842 29.9567 41.4678L42.1616 50.2713C42.6622 50.6324 43.3379 50.6324 43.8386 50.2713L56.0434 41.4678C58.6499 39.5842 60.1956 36.5653 60.2001 33.3494V14.5942C60.1998 14.0245 59.8622 13.5091 59.3401 13.2813L43.5734 6.37833C43.2078 6.21878 42.7923 6.21878 42.4267 6.37833ZM57.3334 15.5302V33.3494C57.329 35.6442 56.2259 37.7981 54.3664 39.1429L43.0001 47.3416L31.6337 39.1429C29.7742 37.7981 28.6711 35.6442 28.6667 33.3494V15.5302L43.0001 9.25646L57.3334 15.5302Z" fill="black"/>
<path d="M11.8751 47.5867L8.77478 40.3426C8.11548 38.8491 6.70949 37.8208 5.08644 37.645C3.4634 37.4693 1.86987 38.1727 0.906126 39.4904C-0.0576164 40.8082 -0.245158 42.5399 0.414146 44.0334L6.03138 56.3902C6.7892 58.063 7.84344 59.5849 9.14315 60.8823L17.9768 69.7173C17.4793 70.2446 17.2015 70.9417 17.1999 71.6667V83.1333C17.1999 84.7165 18.4834 86 20.0666 86H35.8332C37.4165 86 38.6999 84.7165 38.6999 83.1333V71.6667C38.6999 70.0834 37.4165 68.8 35.8332 68.8V66.1326C35.8772 62.738 34.7697 59.4286 32.6914 56.7442C31.4729 55.1416 29.8123 53.9304 27.9141 53.2598C24.8953 51.9914 22.1189 50.2097 19.7082 47.9937C17.4706 46.1508 14.2917 45.9856 11.8751 47.5867ZM35.8332 83.1333H20.0666V71.6667H35.8332V83.1333ZM30.4539 58.5345C32.1247 60.7112 33.0102 63.3889 32.9666 66.1326V68.8H21.1143L11.1699 58.8555C10.1137 57.8008 9.25667 56.5641 8.64005 55.2048L3.02281 42.8481C2.78309 42.3207 2.82771 41.7076 3.14126 41.2205C3.45481 40.7333 3.99436 40.4388 4.57368 40.4386C5.25544 40.4381 5.87158 40.8449 6.13888 41.4721L9.34525 48.9498C10.1967 50.9448 11.4239 52.7575 12.9601 54.2889L19.5076 60.8378C19.8675 61.2104 20.4004 61.3599 20.9015 61.2287C21.4026 61.0975 21.794 60.7062 21.9252 60.205C22.0564 59.7039 21.9069 59.171 21.5343 58.8111L14.9868 52.2622C14.3285 51.6054 13.7365 50.8852 13.2195 50.1122C14.596 49.053 16.5217 49.0851 17.8621 50.1896C20.5415 52.6485 23.6383 54.6095 27.0068 55.9803C28.3792 56.4793 29.5769 57.3668 30.4539 58.5345Z" fill="black"/>
<path d="M31.5334 75.9667H30.1001C29.3085 75.9667 28.6667 76.6084 28.6667 77.4C28.6667 78.1916 29.3085 78.8334 30.1001 78.8334H31.5334C32.325 78.8334 32.9667 78.1916 32.9667 77.4C32.9667 76.6084 32.325 75.9667 31.5334 75.9667Z" fill="black"/>
<path d="M79.9686 56.3901L85.5858 44.0334C86.2765 42.5348 86.1056 40.7803 85.1388 39.4432C84.172 38.1061 82.5594 37.3941 80.9199 37.5804C79.2804 37.7668 77.8687 38.8225 77.2266 40.3425L74.1335 47.5594C71.7085 45.9662 68.528 46.1406 66.2917 47.9894C63.881 50.2054 61.1047 51.9871 58.0859 53.2554C56.1877 53.9261 54.5271 55.1373 53.3086 56.7399C51.2294 59.4254 50.1218 62.7364 50.1667 66.1325V68.7999C48.5835 68.7999 47.3 70.0834 47.3 71.6666V83.1332C47.3 84.7165 48.5835 85.9999 50.1667 85.9999H65.9334C67.5166 85.9999 68.8001 84.7165 68.8001 83.1332V71.6666C68.7985 70.9416 68.5207 70.2445 68.0232 69.7173L76.8568 60.8822C78.1565 59.5848 79.2108 58.0629 79.9686 56.3901ZM65.9334 83.1332H50.1667V71.6666H65.9334V83.1332ZM64.8856 68.7999H53.0334V66.1325C52.9901 63.3893 53.8756 60.7122 55.546 58.5358C56.4211 57.3689 57.6161 56.4811 58.986 55.9802C62.3551 54.6099 65.4525 52.6489 68.1321 50.1895C69.4711 49.0766 71.4022 49.0391 72.7833 50.0992C72.2648 50.878 71.6699 51.603 71.0074 52.2636L64.4599 58.8125C63.9167 59.3749 63.9245 60.2688 64.4774 60.8217C65.0303 61.3746 65.9243 61.3824 66.4867 60.8392L73.0341 54.2903C74.5703 52.7588 75.7976 50.9462 76.649 48.9511L79.8554 41.472C80.1234 40.8456 80.7393 40.4396 81.4206 40.44C81.9999 40.4402 82.5394 40.7347 82.853 41.2218C83.1665 41.709 83.2112 42.322 82.9714 42.8494L77.3542 55.2062C76.7376 56.5655 75.8805 57.8022 74.8244 58.8569L64.8856 68.7999Z" fill="black"/>
<path d="M55.8999 75.9667H54.4665C53.6749 75.9667 53.0332 76.6084 53.0332 77.4C53.0332 78.1916 53.6749 78.8334 54.4665 78.8334H55.8999C56.6915 78.8334 57.3332 78.1916 57.3332 77.4C57.3332 76.6084 56.6915 75.9667 55.8999 75.9667Z" fill="black"/>
<path d="M35.26 30.3867C34.6267 29.9117 33.7283 30.0401 33.2533 30.6734C32.7783 31.3066 32.9067 32.2051 33.54 32.68L39.2733 36.98C39.5214 37.1661 39.8232 37.2667 40.1333 37.2667C40.2145 37.2664 40.2955 37.2597 40.3755 37.2466C40.7637 37.18 41.1074 36.9566 41.3258 36.6289L52.7925 19.4289C53.0767 19.0028 53.112 18.4575 52.8852 17.9983C52.6583 17.5392 52.2037 17.2359 51.6926 17.2028C51.1816 17.1697 50.6916 17.4118 50.4074 17.8379L39.7807 33.778L35.26 30.3867Z" fill="black"/>
</g>
<defs>
<clipPath id="clip0">
<rect width="86" height="86" fill="white"/>
</clipPath>
</defs>
</svg>
